HIERARCHY
ROOT Hips
{
	OFFSET -14.64140 90.27770 -84.91600
	CHANNELS 6 Xposition Yposition Zposition Zrotation Xrotation Yrotation
	JOINT Spine
	{
		OFFSET 0.00000 13.20850 -1.60436
		CHANNELS 3 Zrotation Xrotation Yrotation
		JOINT Spine1
		{
			OFFSET 0.00000 8.61716 0.00000
			CHANNELS 3 Zrotation Xrotation Yrotation
			JOINT Spine2
			{
				OFFSET 0.00000 8.61717 0.00000
				CHANNELS 3 Zrotation Xrotation Yrotation
				JOINT Spine3
				{
					OFFSET 0.00000 8.61717 0.00000
					CHANNELS 3 Zrotation Xrotation Yrotation
					JOINT Neck
					{
						OFFSET 0.00000 11.07920 1.10792
						CHANNELS 3 Zrotation Xrotation Yrotation
						JOINT Neck1
						{
							OFFSET 0.00000 7.08032 0.00000
							CHANNELS 3 Zrotation Xrotation Yrotation
							JOINT Head
							{
								OFFSET 0.00000 7.08031 0.00000
								CHANNELS 3 Zrotation Xrotation Yrotation
								End site
								{
									OFFSET 0.00000 0.00000 0.00000
								}
							}
						}
					}
					JOINT RightShoulder
					{
						OFFSET -0.01000 7.91373 5.19711
						CHANNELS 3 Zrotation Xrotation Yrotation
						JOINT RightArm
						{
							OFFSET -18.41580 0.00000 0.00000
							CHANNELS 3 Zrotation Xrotation Yrotation
							JOINT RightForeArm
							{
								OFFSET -29.11090 0.00000 0.00000
								CHANNELS 3 Zrotation Xrotation Yrotation
								JOINT RightHand
								{
									OFFSET -24.65040 0.00000 0.00000
									CHANNELS 3 Zrotation Xrotation Yrotation
									JOINT RightHandThumb1
									{
										OFFSET -5.35114 -0.85590 3.97906
										CHANNELS 3 Zrotation Xrotation Yrotation
										JOINT RightHandThumb2
										{
											OFFSET -4.52789 0.00000 0.00000
											CHANNELS 3 Zrotation Xrotation Yrotation
											JOINT RightHandThumb3
											{
												OFFSET -2.46976 0.00000 0.00000
												CHANNELS 3 Zrotation Xrotation Yrotation
												End site
												{
													OFFSET 0.00000 0.00000 0.00000
												}
											}
										}
									}
									JOINT RightHandIndex1
									{
										OFFSET -14.26970 0.00000 2.88139
										CHANNELS 3 Zrotation Xrotation Yrotation
										JOINT RightHandIndex2
										{
											OFFSET -5.48836 0.00000 0.00000
											CHANNELS 3 Zrotation Xrotation Yrotation
											JOINT RightHandIndex3
											{
												OFFSET -3.01859 0.00000 0.00000
												CHANNELS 3 Zrotation Xrotation Yrotation
												End site
												{
													OFFSET 0.00000 0.00000 0.00000
												}
											}
										}
									}
									JOINT RightHandMiddle1
									{
										OFFSET -14.26970 0.00000 -0.09147
										CHANNELS 3 Zrotation Xrotation Yrotation
										JOINT RightHandMiddle2
										{
											OFFSET -6.17441 0.00000 0.00000
											CHANNELS 3 Zrotation Xrotation Yrotation
											JOINT RightHandMiddle3
											{
												OFFSET -3.56743 0.00000 0.00000
												CHANNELS 3 Zrotation Xrotation Yrotation
												End site
												{
													OFFSET 0.00000 0.00000 0.00000
												}
											}
										}
									}
									JOINT RightHandRing1
									{
										OFFSET -12.69180 0.00000 -3.06433
										CHANNELS 3 Zrotation Xrotation Yrotation
										JOINT RightHandRing2
										{
											OFFSET -5.62556 0.00000 0.00000
											CHANNELS 3 Zrotation Xrotation Yrotation
											JOINT RightHandRing3
											{
												OFFSET -3.56744 0.00000 0.00000
												CHANNELS 3 Zrotation Xrotation Yrotation
												End site
												{
													OFFSET 0.00000 0.00000 0.00000
												}
											}
										}
									}
									JOINT RightHandPinky1
									{
										OFFSET -11.11390 0.00000 -6.03719
										CHANNELS 3 Zrotation Xrotation Yrotation
										JOINT RightHandPinky2
										{
											OFFSET -4.52789 0.00000 0.00000
											CHANNELS 3 Zrotation Xrotation Yrotation
											JOINT RightHandPinky3
											{
												OFFSET -2.46976 0.00000 0.00000
												CHANNELS 3 Zrotation Xrotation Yrotation
												End site
												{
													OFFSET 0.00000 0.00000 0.00000
												}
											}
										}
									}
								}
							}
						}
					}
					JOINT LeftShoulder
					{
						OFFSET 0.01000 7.91373 5.19711
						CHANNELS 3 Zrotation Xrotation Yrotation
						JOINT LeftArm
						{
							OFFSET 18.41580 0.00000 0.00000
							CHANNELS 3 Zrotation Xrotation Yrotation
							JOINT LeftForeArm
							{
								OFFSET 29.11090 0.00000 0.00000
								CHANNELS 3 Zrotation Xrotation Yrotation
								JOINT LeftHand
								{
									OFFSET 24.65040 0.00000 0.00000
									CHANNELS 3 Zrotation Xrotation Yrotation
									JOINT LeftHandThumb1
									{
										OFFSET 5.35114 -0.85590 3.97906
										CHANNELS 3 Zrotation Xrotation Yrotation
										JOINT LeftHandThumb2
										{
											OFFSET 4.52789 0.00000 0.00000
											CHANNELS 3 Zrotation Xrotation Yrotation
											JOINT LeftHandThumb3
											{
												OFFSET 2.46977 0.00000 0.00000
												CHANNELS 3 Zrotation Xrotation Yrotation
												End site
												{
													OFFSET 0.00000 0.00000 0.00000
												}
											}
										}
									}
									JOINT LeftHandIndex1
									{
										OFFSET 14.26970 0.00000 2.88139
										CHANNELS 3 Zrotation Xrotation Yrotation
										JOINT LeftHandIndex2
										{
											OFFSET 5.48836 0.00000 0.00000
											CHANNELS 3 Zrotation Xrotation Yrotation
											JOINT LeftHandIndex3
											{
												OFFSET 3.01859 0.00000 0.00000
												CHANNELS 3 Zrotation Xrotation Yrotation
												End site
												{
													OFFSET 0.00000 0.00000 0.00000
												}
											}
										}
									}
									JOINT LeftHandMiddle1
									{
										OFFSET 14.26970 0.00000 -0.09147
										CHANNELS 3 Zrotation Xrotation Yrotation
										JOINT LeftHandMiddle2
										{
											OFFSET 6.17440 0.00000 0.00000
											CHANNELS 3 Zrotation Xrotation Yrotation
											JOINT LeftHandMiddle3
											{
												OFFSET 3.56744 0.00000 0.00000
												CHANNELS 3 Zrotation Xrotation Yrotation
												End site
												{
													OFFSET 0.00000 0.00000 0.00000
												}
											}
										}
									}
									JOINT LeftHandRing1
									{
										OFFSET 12.69180 0.00000 -3.06433
										CHANNELS 3 Zrotation Xrotation Yrotation
										JOINT LeftHandRing2
										{
											OFFSET 5.62556 0.00000 0.00000
											CHANNELS 3 Zrotation Xrotation Yrotation
											JOINT LeftHandRing3
											{
												OFFSET 3.56744 0.00000 0.00000
												CHANNELS 3 Zrotation Xrotation Yrotation
												End site
												{
													OFFSET 0.00000 0.00000 0.00000
												}
											}
										}
									}
									JOINT LeftHandPinky1
									{
										OFFSET 11.11390 0.00000 -6.03719
										CHANNELS 3 Zrotation Xrotation Yrotation
										JOINT LeftHandPinky2
										{
											OFFSET 4.52789 0.00000 0.00000
											CHANNELS 3 Zrotation Xrotation Yrotation
											JOINT LeftHandPinky3
											{
												OFFSET 2.46976 0.00000 0.00000
												CHANNELS 3 Zrotation Xrotation Yrotation
												End site
												{
													OFFSET 0.00000 0.00000 0.00000
												}
											}
										}
									}
								}
							}
						}
					}
					JOINT pCube4
					{
						OFFSET 0.00000 10.91090 1.10792
						CHANNELS 3 Zrotation Xrotation Yrotation
						End site
						{
							OFFSET 0.00000 0.00000 0.00000
						}
					}
				}
			}
		}
	}
	JOINT RightUpLeg
	{
		OFFSET -9.98441 0.00000 0.00000
		CHANNELS 3 Zrotation Xrotation Yrotation
		JOINT RightLeg
		{
			OFFSET 0.00000 -42.11790 0.00000
			CHANNELS 3 Zrotation Xrotation Yrotation
			JOINT RightFoot
			{
				OFFSET 0.00000 -45.00020 -0.00001
				CHANNELS 3 Zrotation Xrotation Yrotation
				JOINT RightForeFoot
				{
					OFFSET 0.00000 -3.74820 0.00000
					CHANNELS 3 Zrotation Xrotation Yrotation
					JOINT RightToeBase
					{
						OFFSET 0.00000 0.06325 14.43120
						CHANNELS 3 Zrotation Xrotation Yrotation
						End site
						{
							OFFSET 0.00000 0.00000 0.00000
						}
					}
				}
			}
		}
	}
	JOINT LeftUpLeg
	{
		OFFSET 9.98441 0.00000 0.00000
		CHANNELS 3 Zrotation Xrotation Yrotation
		JOINT LeftLeg
		{
			OFFSET 0.00000 -42.11800 0.00000
			CHANNELS 3 Zrotation Xrotation Yrotation
			JOINT LeftFoot
			{
				OFFSET 0.00000 -45.00070 0.00000
				CHANNELS 3 Zrotation Xrotation Yrotation
				JOINT LeftForeFoot
				{
					OFFSET 0.00000 -3.74824 0.00000
					CHANNELS 3 Zrotation Xrotation Yrotation
					JOINT LeftToeBase
					{
						OFFSET 0.00000 0.06325 14.43110
						CHANNELS 3 Zrotation Xrotation Yrotation
						End site
						{
							OFFSET 0.00000 0.00000 0.00000
						}
					}
				}
			}
		}
	}
}
MOTION
Frames: 4
Frame Time: 0.050000
-0.0055713555431730725 -0.03679409220215737 -0.013994676901222936 0.019129586612998906 0.008658937317129863 -0.010311158490264753 5.917068041536301 3.031648220999804 -2.382920925699153 -0.7013681020702316 3.405317380584596 0.33693778746187575 -0.5379704936474257 -1.057285215439615 0.5993629648029396 -0.21784401773992979 -0.548852998420109 -0.3261846549878758 0.24335964659969375 11.26332747552181 -1.7440165850097946 0.39780313747078266 -0.6288626962128442 -3.1890550988506976 1.0097124437035403 -16.982866532825977 -0.35340254924023845 -9.272809386352298 3.3261501125588064 -18.857988439988265 80.41211201844645 1.564534580334631 -3.4690874304868125 0.5968784093214663 7.645441566311836 56.198909372533265 17.554205290897684 -0.36683511125798934 -2.857968737788918 4.522410824377554 -0.145766452279104 -1.6281678418599843 -0.021693404427533133 -0.006855956173173929 -56.25179405332804 -0.044544566585341526 -0.0017707278058211953 -56.244005998382704 -38.750066334698246 0.01774688489085363 0.02950795646571052 -0.017461598563900522 -0.04530297695395714 -0.04739896243116173 -0.02443994569427308 0.04122167467755442 0.019844495386207694 -36.65540662302 -0.008430284133518184 0.006604725376571328 0.004791355056243875 0.033287191971109555 -0.014474705523271288 0.02756366838027894 -0.038821186676599784 -0.013486625071559684 -19.72706058943685 0.04073052408006534 -0.01475090926139315 -0.006367097321583053 -0.028746411677532866 0.024927630756586983 0.021210444200221994 -0.00095820934476171 0.00015967276903802898 24.101192338672895 0.02227354153694749 -0.04744983258477714 28.873929949317088 -0.0404257317262954 -0.02046206419153057 28.889983121459156 -0.0022871398907094993 -0.008949798786323926 8.60684460509158 2.268660228116541 15.441880427439159 -75.6982250846084 15.312527945583488 -5.5717743036103276 3.2174425611538493 8.310801624292866 -44.59789943144343 -20.069434618463358 -0.17547910934164002 1.0827932081340308 -0.49611890446469664 0.06393651547718116 -8.138620694875575 -0.03078219247401286 -0.016317055079411998 44.57748495210354 -0.0333705037603097 0.004596349819303211 44.57331813511344 12.499453701275128 -0.0037850628040573225 -0.015107784724213997 -0.03630027192143222 0.009316289789844282 -0.03611718126034953 -0.046116285566126375 0.027465374713844845 -0.01736044272305577 11.12937532490799 0.0474014442214346 -0.034157997726387 0.04672730029236031 -0.004421032178036584 0.04107127681974981 -0.0015391815478084912 0.016757165664116683 -0.036255750501868154 4.725799443888465 -0.018774773707735257 -0.021403621621843134 -0.025268602149313448 -0.04341473201078201 -0.005237748025491067 -0.02581138993509143 0.014903328862195529 -0.02916268888582437 -5.562999321829256 -0.03293115209785236 -0.029351435219576307 -6.7391681329822655 -0.0034757199592981595 -0.02085440138063996 -6.685706785485746 0.008351264471543877 -0.025691717030025013 0.026073429580636538 0.04976323544909995 0.034889179204526756 8.036099919121638 3.4825763306409128 -19.195000983218236 0.049501082255845714 10.43855541207377 0.014673087758771198 -5.613649180625012 -15.65155998366512 3.190826212164966 -0.009684884445001802 0.00837110798251547 0.005222653123450851 0.015611604110488746 4.69918456855039 -0.026222849117727834 12.458828240800806 -8.269400366865318 6.898297307015608 0.003216102347301573 46.330106203763904 0.0027110755320423497 -4.366024232989701 -14.722926960582157 -3.8476045996243062 0.048521513504769624 0.0194071978780376 0.009192984665349714 0.029866531420746287 -10.724331259736367 -0.031972902984740974 
-0.03889672462584675 0.0495758352662957 -0.04802269237797984 -0.02712631264047662 0.032784857417000345 -0.023575395697860192 5.771085710824523 3.012312284247015 -2.401661068208655 -0.7305459653235042 3.4192278373594926 0.3364975383892471 -0.48710069620553176 -1.0290263489458629 0.6100905688298041 -0.2478697477085018 -0.5239594360909254 -0.30576824884147014 0.2332447895835282 11.505712546949288 -1.732917675366357 0.4405212823556191 -0.6340555739903994 -3.276056836814937 1.0363611884062438 -16.99360343681097 -0.3620955272050631 -9.488276752235581 3.335331518182909 -18.98163585413145 79.30099660368089 1.2295422354022034 -3.4816360923106666 1.5446081158357596 7.284525441884248 59.16728966683692 17.29175160791695 -0.34403161351319517 -2.976849875003896 4.4976047958363585 -0.15081367018940064 -1.5895569605956126 0.02017179732295211 -0.0007030428045607207 -56.26377273000149 -0.03632824814369013 -0.00019645776628878062 -56.212338995065686 -38.74558994986787 -0.009910191383455464 -0.005361575014039975 -0.008397941638561193 -0.01301051439977706 0.007496424930222987 0.0435721788128222 0.024923777981401603 -0.004560527945502127 -36.69836078815922 0.029984436208754146 0.015918027756765967 -0.025668470669868295 -0.006779886792855261 0.03317859322166658 -0.004812867848438551 0.008302588617068231 0.02211865675407001 -19.716458137982254 -0.0033659338872895055 -0.047812103232019836 0.0437375304664923 -0.04001220800943444 0.0056762340256059545 -0.015862696779249688 0.04846108313385265 0.028393813763673878 24.07184657521118 -0.0009785785934537893 -0.030852975993632993 28.83044611530688 0.047551507541574035 0.021755512681832984 28.83406741551577 -0.02969291551075672 0.037067479899946194 8.866627869572447 2.2016925580256235 15.559388090055947 -75.02408138714978 14.350846272271992 -5.5686951165660785 2.4141151061861734 8.165469962158753 -45.55895829648102 -19.889434667925084 -0.31676225186740237 0.9377742330175606 -0.4612821935377166 0.10339160915224599 -8.135115322581852 -0.0032672975183480548 -0.012525364191864785 44.60326592513369 -0.041269761165748355 -0.0074604437140243715 44.59703284789289 12.450920048135858 -0.028452856415635434 -0.02120371868293886 -0.04409231203094243 0.015125366174586428 0.00216324760351895 0.010138273222377401 -0.026672252692145165 0.0013204157428154122 11.097796621184758 -0.011235813282616169 0.028145834001688432 0.009596263323821321 -0.03528589288328502 -0.02506400335950677 0.025683361744448255 -0.011032413050664183 0.04672906953112515 4.74646510432037 -0.023380853123957688 0.04743238743779511 0.018993098844358507 -0.03253522366245825 0.042225943943075925 -0.023036401986411006 -0.018188805102533897 -0.03602122435332972 -5.630470055181566 0.034780557382527784 0.018425276846885972 -6.718655250726678 -0.028012048939561073 0.038305163973799426 -6.737222562573564 -0.011859211815394424 -0.04002530654770993 -0.03504601768744632 -0.034859510107773 -0.01052687991825375 8.05509225382537 3.5393865772396356 -19.229228999355225 0.020514468909914492 10.355579941772348 0.01022008284770344 -5.628976954668788 -15.648201756196062 3.188768174933284 0.014536822240622863 -0.03628749559762964 -0.0071718232294935 0.004934969758022025 4.7000968136522205 -0.019776455916240627 12.477683673067027 -8.231528412521543 6.895197255637703 0.03366770499253158 46.407890902003615 -0.004377388433733153 -4.325284629936924 -14.752289943006554 -3.8119031109749115 0.024164547241625745 -0.03403008423391166 -0.0047352964576821205 -0.024466048911994148 -10.780782346645303 -0.04559415185062815 
-0.03520554597244427 -0.03159626984246957 -0.005048076310500914 0.010735644063275256 -0.026653828311154083 0.040879625847524706 5.593547610580921 3.000367935328291 -2.32187106334851 -0.7569556875365615 3.488123968784853 0.3468064806863871 -0.5544950010594877 -1.0696533436183233 0.7238196284962701 -0.24717184437477502 -0.4664529335154576 -0.2838727448018956 0.23957390192708342 11.773316124476308 -1.741133133305838 0.4583068751413586 -0.6577095258021837 -3.4215819006530577 1.0300002957395709 -16.948128072582417 -0.2856979820719588 -9.651995976000576 3.3606006383640596 -19.04734995970768 78.10209764370386 0.7969151338124207 -2.896869324051956 3.361925883168828 7.052424868353109 63.87864302905067 17.098755219210997 -0.3717644722258636 -3.3078147289627458 4.576838640874822 -0.10204052840831182 -1.6314944117780252 0.011093287766208871 -0.03801788076303713 -56.27347236061937 0.02016126061303732 -0.0029594111806723715 -56.239214122692296 -38.75249217117767 0.008092776245486316 -0.04078910645930859 0.012294848248824833 -0.0007857997132389701 0.0042155421859842255 0.04441115455947362 0.04091771278291348 0.02770397786615721 -36.73559710041317 0.007224231483682907 0.028827938016911834 -0.007878068093597857 0.007582606990225687 -0.02928541260554136 -0.005120156576398758 -0.049704969289232334 0.015311619247585484 -19.74081050795664 0.03177712631967069 -0.045184982597329566 0.03935586312798556 0.0016051410845273621 -0.01708660018638387 -0.0045035623882862565 -0.009505357273117531 -0.0064180141005246265 24.045438153037335 -0.028817691987932992 -0.009489234040610067 28.87155936906953 0.012769561378173342 0.005428512741363577 28.864990647541084 -0.03511102834660219 -0.00024960740862997523 9.027892086172244 2.217649053771885 15.789076981242266 -74.44080676169388 13.651543462438323 -5.645152177425399 1.3404317708849722 8.179504823443379 -46.71883278569121 -19.799718049729044 -0.22391841934127432 0.7923349867445086 -0.4395085573679477 0.033727355535023415 -8.12098112435808 -0.046137852038710486 -0.005879913214430021 44.56839451819353 0.035572313490485744 -0.03274585831951177 44.546579581980346 12.42317838192324 -0.038740998788322524 -0.02409754682502793 -0.004654077704570572 -0.0013722271233158568 -0.0453068558428214 0.03824971041881007 -0.04512130186815094 0.021048111159258052 11.064283943780872 0.03021498823801591 0.04302551514923405 -0.03889572790301734 0.02481387137617233 0.010572740203290583 0.0062680643725527285 -0.03753317931161281 0.015808118126628867 4.754186185878631 -0.03405676524010823 -0.02459584699025454 -0.009502147223432483 0.040853156079619986 -0.02551400851041594 -0.023656709031918 -0.02931926396269342 -0.024049578515133622 -5.552476501436804 0.021193846838540698 -0.007804183434042392 -6.7051486135612075 -0.0030155149829642846 -0.03201029102830367 -6.7386903771387185 0.0021094491560638483 -0.01900214614625678 0.034023207617224695 -0.03685063775052435 0.004190924556587362 8.076792991406686 3.527314024093058 -19.23521674711507 -0.015078439793245288 10.393286656314679 0.007914977068934358 -5.589905221283493 -15.652052295297812 3.2229387998124435 -0.03564956130243084 -0.007340148008038618 -0.01607321569122139 0.013267981997867334 4.6654024003088 -0.03008048384236067 12.504383794495588 -8.265458333998197 6.889520218634332 0.03294676846440259 46.38354409453009 0.006374241734963537 -4.33369936003493 -14.75570128698359 -3.826820810843209 0.006079244635156528 -0.041054795783972815 0.04562933189047313 -0.032788070098343995 -10.73010049464697 -0.03387361287355838 
-0.02317957648720698 -0.008205175035184855 0.0037253375382745725 -0.02090219303886974 0.04222558046543315 0.005593141693491113 5.35807561923755 2.988324966413224 -2.3191334401193227 -0.7375214322223603 3.4775035307347077 0.3684249258632471 -0.6036097402710967 -1.1522602205048371 0.8390999004680681 -0.33136861322074374 -0.46792366192990553 -0.22824735665134396 0.20144732503243423 11.961846796110072 -1.7367655795831367 0.42464677791375344 -0.6137565321425063 -3.630940065137598 1.1025447245422206 -17.010829258242033 -0.3105408724081262 -9.807706886587019 3.357073353079627 -19.094460277407425 76.91560294638533 0.3854220647004464 -1.9634730740854835 5.167975074411893 6.849250463825278 68.79160434771941 17.262446854083837 -0.4386006124671256 -3.853863838714744 4.488342141254556 -0.14212576657667356 -1.6291387799372192 -0.028410102517098353 0.016685283345521107 -56.23832496920929 -0.026181976441143413 -0.013719870242294502 -56.220926515687914 -38.798304352693165 -0.00839111098154922 -0.03203504055302127 0.03667691529270252 -0.0012107925460791522 -0.048115798747952625 -0.0055765613694027496 -0.037997921692455326 -0.039895629047968215 -36.71138101360213 -0.007765242320189482 0.013213325262117125 0.014049853506597359 0.041433789775954966 -0.024360698656896395 0.006054189548380124 0.04603612701553879 -0.012476653103795012 -19.732144212057104 0.023091110516791944 0.021067617538103305 -0.015271835545784271 0.04321183246541209 0.02656122650814522 0.03967384835794015 -0.019015024206874807 -0.012399060912174525 24.00977037105594 -0.04065494219246185 0.025254359549787907 28.88501410433632 0.044424814433809995 -0.0179399616881521 28.85709397285669 -0.004542048556919123 0.045935411583624484 9.093114338802632 2.226770269687532 15.85671423631785 -73.98356483753498 13.26380332080764 -5.821845439746794 0.34674624896977935 8.26407029955264 -47.476648556015924 -19.97307156303805 -0.01931727972239433 0.48293825765866455 -0.42542175748051414 0.071622636192923 -8.100496684817207 0.010164936438260297 0.026729153444270803 44.60224623680836 -0.0060875738723654435 -0.027264957967169927 44.578623278918315 12.503747397183433 0.003226076470415757 0.03605702982963536 0.019467029388102398 0.004769214240966481 0.018189248645528566 -0.018327550234823606 0.005024452737078523 -0.04302759470739729 11.075222974567675 -0.014551324758969074 0.017886186537484854 -0.044472695128356624 -0.01766203181350207 -0.048493029221331155 0.03050085562340182 0.038082552987353906 0.008606680429252915 4.750636347858716 -0.006899287609911634 0.02406405273927559 0.033221418063496155 -0.006380505020095143 -0.0023536290999035966 0.024227620855063275 -0.0008644029978297747 -0.035876485140837834 -5.561419761458766 0.0360641561731733 -0.01975132450550525 -6.709773604690455 -0.0016590378985397352 -0.017363706931272305 -6.720915852897105 0.02065608800921942 -0.04917015417603855 -0.046809020749957464 -0.017817119969123503 -0.0019027083936773923 8.000209821552545 3.474010159356305 -19.269461594544808 -0.017422706901051143 10.431144365247018 0.007483760261587102 -5.669316273681672 -15.61252342048496 3.1668055709530183 0.04166450196575348 0.04564785578840743 0.008971696449424131 -0.00152387407449414 4.704464254798154 0.02629943889383309 12.458605402290933 -8.214669382056854 6.8930752141298335 -0.021264636776362273 46.36298865943526 -0.030775479484177894 -4.304444447325535 -14.743805427222693 -3.80667560020237 -0.036945644702860034 0.03596089958953239 0.031003024425301652 0.038147065673905724 -10.759360183244524 -0.01797323335678098 
